<?xml version="1.0" encoding="UTF-8"?>
<svg id="Layer_1" data-name="Layer 1" xmlns="http://www.w3.org/2000/svg" viewBox="0 0 512 463.13">
  <defs>
    <style>
      .cls-1 {
        fill: #fdc031;
      }

      .cls-2, .cls-3, .cls-4, .cls-5, .cls-6 {
        stroke-linecap: round;
        stroke-linejoin: round;
      }

      .cls-2, .cls-3, .cls-4, .cls-6 {
        fill: none;
      }

      .cls-2, .cls-3, .cls-5 {
        stroke: #365b75;
      }

      .cls-2, .cls-5, .cls-6 {
        stroke-width: 13.9px;
      }

      .cls-3, .cls-4 {
        stroke-width: 15.16px;
      }

      .cls-4 {
        stroke: #365a74;
      }

      .cls-5 {
        fill: #70c5d7;
      }

      .cls-6 {
        stroke: #375b75;
      }
    </style>
  </defs>
  <g id="Generative_Object" data-name="Generative Object">
    <g>
      <path class="cls-5" d="M188.51,78.4c42.29-1.56,83.27,23.62,100.54,62.5,58.43-18.75,113.26-.26,128.68,63.87.81,3.36.66,18.28,1.26,19.05,1.6,2.04,30.93,7.04,37.4,9.76.42.18.85.32,1.26.51,79.04,34.65,54.01,138.15-36.64,144.81-104.87,7.71-220.05-7.31-326.01,0-87.87-7.18-122.34-113.95-45.49-164.78,6.63-4.38,33.13-12.95,34.19-14.47.22-.31-.07-1,.17-1.43,2.9-5.36,1.09-27.66,3.04-36.41,9.67-43.26,46.83-76.14,90.22-82.64,3.2-.48,7.99-.63,11.37-.76Z"/>
      <path class="cls-1" d="M457.66,234.08c-.41-.18-.84-.33-1.26-.51-6.47-2.71-35.8-7.72-37.4-9.76-.61-.77-.46-15.69-1.26-19.05-15.42-64.12-70.25-82.61-128.68-63.87-17.27-38.87-58.25-64.05-100.54-62.5v-29.06C274.5-24.01,401.81,1,456.15,99.88c13.24,24.1,28.13,77.37,18.16,103.51-3.73,9.78-6.76,3.85-9.06,5.8-2.82,2.39-8.56,19.79-8.85,24.39.42.18.85.32,1.26.51Z"/>
    </g>
    <g>
      <line class="cls-4" x1="43.63" y1="42.18" x2="96.8" y2="72.18"/>
      <line class="cls-2" x1="150.62" y1="455.55" x2="175.86" y2="411.39"/>
      <path class="cls-6" d="M182.03,55.01c1.68-1.78,4.48-3.97,6.48-5.68C274.5-24.01,401.81,1,456.15,99.88c13.24,24.1,28.13,77.37,18.16,103.51"/>
      <line class="cls-3" x1="424.83" y1="402.55" x2="455.12" y2="455.55"/>
    </g>
  </g>
</svg>