<?xml version="1.0" encoding="UTF-8"?>
<svg id="Layer_1" data-name="Layer 1" xmlns="http://www.w3.org/2000/svg" xmlns:xlink="http://www.w3.org/1999/xlink" viewBox="0 0 510.29 512">
  <defs>
    <style>
      .cls-1 {
        fill: #fcfcfc;
      }

      .cls-2 {
        fill: #b1da94;
      }

      .cls-3 {
        fill: #62d0e3;
      }

      .cls-4 {
        fill: #86d0ac;
      }

      .cls-5 {
        fill: #e7ea88;
      }

      .cls-6 {
        fill: none;
        stroke: #256d7e;
        stroke-linecap: round;
        stroke-linejoin: round;
        stroke-width: 12.93px;
      }

      .cls-7 {
        fill: url(#linear-gradient);
      }
    </style>
    <linearGradient id="linear-gradient" x1="-40.01" y1="32.1" x2="-272.41" y2="432.55" gradientTransform="translate(437.44 -17.3) scale(1.18)" gradientUnits="userSpaceOnUse">
      <stop offset="0" stop-color="#f7c32c"/>
      <stop offset=".3" stop-color="#84be64"/>
      <stop offset=".67" stop-color="#33aba7"/>
      <stop offset="1" stop-color="#2e8bc7"/>
    </linearGradient>
  </defs>
  <g id="Generative_Object" data-name="Generative Object">
    <g>
      <path class="cls-5" d="M501.89,261.58c-1.98.54-8.35-.9-9.4.59-3.18,4.49,4.22,62.07-2.94,66.42-1.68,1.02-6.79-1.96-8.82,2.35.68-62.44,8.75-181.74-1.18-238.06-5.23-29.66-34.71-57.04-64.07-61.72-99.81,3.95-210.5-9.25-309.18-1.18-28.07,2.3-57.26,14.9-69.95,41.73-15.27,32.3-7.23,138.68-7.05,179.28-8.52,5.08-2.24,38.64-5.88,41.73l-15.28,5.29c-.34-47.19-7.61-202.86,11.05-236.3C35.45,32.6,62.05,14.03,95.14,10c56.95-6.94,153.14-1.6,213.96-1.18,69.45.49,154.57-14.97,186.22,64.66,13.15,33.08,6.7,146.28,6.58,188.1Z"/>
      <path class="cls-3" d="M29.3,251c.17,39.15-6.44,153.16,4.7,182.81,10.28,27.35,39.27,45.99,67.6,48.79,99.59,9.84,218.77-5.48,319.76-2.35,7.11-3.1,15.12-5.32,21.75-9.4.13,9.99,11.42,7.51,8.23,19.28-16.1,9.61-33.34,12.67-51.73,13.64-104.59,5.5-212.88-3.51-317.41-3.29C-12.26,474.39,8.68,372.87,8.14,298.02l15.28-5.29c3.63-3.09-2.65-36.65,5.88-41.73Z"/>
      <path class="cls-2" d="M501.89,261.58c-.13,45.64,4.55,105.54-.24,149.3h-20.93c2.51-23.74-.27-55.17,0-79.94,2.03-4.31,7.14-1.33,8.82-2.35,7.16-4.35-.24-61.94,2.94-66.42,1.05-1.48,7.42-.05,9.4-.59Z"/>
      <path class="cls-4" d="M501.66,410.88c-3.84,35.09-19.58,60.88-50.32,79.24,3.19-11.77-8.1-9.29-8.23-19.28,20.16-12.43,35.17-36.73,37.62-59.96h20.93Z"/>
      <g>
        <path class="cls-7" d="M480.73,330.94c-.27,24.77,2.51,56.2,0,79.94-2.45,23.23-17.46,47.53-37.62,59.96-6.63,4.09-14.63,6.31-21.75,9.4-100.99-3.13-220.17,12.19-319.76,2.35-28.33-2.8-57.32-21.44-67.6-48.79-11.14-29.65-4.53-143.66-4.7-182.81-.17-40.6-8.21-146.98,7.05-179.28,12.68-26.83,41.87-39.44,69.95-41.73,98.68-8.08,209.37,5.13,309.18,1.18,29.36,4.68,58.84,32.05,64.07,61.72,9.93,56.32,1.85,175.62,1.18,238.06Z"/>
        <g>
          <path class="cls-1" d="M260.31,173.41c47.47-4.08,90.13,30.26,95.22,77.59,70.65-11.19,102.16,84.38,38.79,116.38-44.4,22.43-196.66-2.35-252.75,7.05-52.88-11.38-55.61-80.73-4.11-96.99-3.79-32.12,8.9-50.95,41.73-52.31.37-.02,6.7,2.46,7.05,2.35,1.38-.43,12.23-20,15.87-24.1,13.73-15.48,37.4-28.19,58.19-29.98Z"/>
          <path class="cls-1" d="M156.85,180.46c14.13-1.89,28.92,1.21,39.38,11.17.19,1.4-18.06,20.12-19.4,20.57-2.82.96-12.12-.22-16.46,1.18-21.61,6.96-29.07,19.03-35.27,39.97-15.63-27.09-.85-68.54,31.74-72.89Z"/>
          <path class="cls-1" d="M93.37,149.9c4.94-1.82,35.32,27.37,35.86,29.98,1.18,5.7-5.37,8.47-9.99,6.47-3.79-1.65-36.22-32.63-25.86-36.44Z"/>
          <path class="cls-1" d="M160.38,124.03c2.36-.98,7.79.3,8.82,2.94,1.67,4.3,1.04,42.72-4.11,44.09-13.02,3.44-7.73-45.77-4.7-47.02Z"/>
          <path class="cls-1" d="M68.68,215.73c1.86-.55,36.98-.68,38.79,0,5.13,1.93,2.83,10.47-1.18,11.76-1.73.56-34.39.52-36.44,0-6.45-1.64-8.12-9.72-1.18-11.76Z"/>
          <path class="cls-1" d="M228.57,148.72c5.89-.8,8.87,3.18,6.47,8.82-.82,1.91-27.93,28.46-29.98,28.8-4.65.79-7.54-4.55-6.47-8.82.51-2.02,27.92-28.52,29.98-28.8Z"/>
          <path class="cls-1" d="M113.36,259.23c6.23-1.72,10.68,2.81,7.64,8.82-1.2,2.38-27.48,26.06-29.98,25.28-12.2-3.83,20.13-33.48,22.34-34.09Z"/>
        </g>
      </g>
    </g>
    <path class="cls-6" d="M309.1,8.83c69.45.49,154.57-14.97,186.22,64.66,13.15,33.08,6.7,146.28,6.58,188.1-.13,45.64,4.55,105.54-.24,149.3-3.84,35.09-19.58,60.88-50.32,79.24-16.1,9.61-33.34,12.67-51.73,13.64-104.59,5.5-212.88-3.51-317.41-3.29C-12.26,474.39,8.68,372.87,8.14,298.02c-.34-47.19-7.61-202.86,11.05-236.3C35.45,32.6,62.05,14.03,95.14,10c56.95-6.94,153.14-1.6,213.96-1.18Z"/>
  </g>
</svg>